<?xml version="1.0" encoding="UTF-8" standalone="no"?>
<svg
   width="616"
   height="623"
   viewBox="0 0 616 623"
   fill="none"
   version="1.1"
   id="svg233"
   sodipodi:docname="6703ef5e3532cdc10f618acc96a6cee0.svg"
   xmlns:inkscape="http://www.inkscape.org/namespaces/inkscape"
   xmlns:sodipodi="http://sodipodi.sourceforge.net/DTD/sodipodi-0.dtd"
   xmlns="http://www.w3.org/2000/svg"
   xmlns:svg="http://www.w3.org/2000/svg">
  <sodipodi:namedview
     id="namedview235"
     pagecolor="#ffffff"
     bordercolor="#666666"
     borderopacity="1.0"
     inkscape:pageshadow="2"
     inkscape:pageopacity="0.0"
     inkscape:pagecheckerboard="0" />
  <g
     filter="url(#filter0_d_3_207)"
     id="g212"
     transform="translate(4,-0.5)">
    <path
       d="m 205.504,43.2302 c 1.768,-1.0714 3.67,-1.8988 5.654,-2.46 l 1.156,-5.6457 9.436,-0.1722 1.362,5.6088 c 2,0.4989 3.926,1.2641 5.727,2.2755 l 4.767,-3.1611 6.797,6.642 -2.955,4.92 c 1.06,1.7836 1.878,3.7032 2.432,5.7072 l 5.582,1.1685 0.17,9.5448 -5.545,1.3653 c -0.491,2.0239 -1.248,3.9723 -2.25,5.7933 l 3.126,4.8339 -6.567,6.8634 -4.864,-2.9889 c -1.763,1.072 -3.661,1.8994 -5.642,2.46 l -1.216,5.6457 -9.436,0.1722 -1.362,-5.6088 c -1.996,-0.499 -3.918,-1.2642 -5.715,-2.2755 l -4.779,3.1611 -6.822,-6.6297 2.955,-4.92 c -1.059,-1.7883 -1.877,-3.7118 -2.432,-5.7195 l -5.582,-1.23 -0.17,-9.5448 5.545,-1.3776 c 0.493,-2.0233 1.25,-3.9714 2.25,-5.7933 l -3.125,-4.8339 6.639,-6.7896 z m 5.034,12.7182 c -1.392,1.4571 -2.326,3.299 -2.683,5.2929 -0.357,1.9939 -0.122,4.0501 0.676,5.9088 0.798,1.8586 2.123,3.4361 3.808,4.5331 1.684,1.097 3.652,1.6641 5.655,1.6297 2.003,-0.0344 3.951,-0.6688 5.598,-1.823 1.646,-1.1541 2.917,-2.7762 3.653,-4.6612 0.735,-1.885 0.901,-3.9481 0.477,-5.9286 -0.424,-1.9804 -1.419,-3.7892 -2.859,-5.1977 -0.958,-0.9413 -2.091,-1.6819 -3.333,-2.1792 -1.242,-0.4973 -2.569,-0.7415 -3.904,-0.7187 -1.336,0.0229 -2.654,0.3124 -3.878,0.8519 -1.225,0.5395 -2.332,1.3184 -3.258,2.292 z"
       fill="#e0e0e0"
       id="path2" />
    <path
       d="m 207.693,360.004 c 1.018,-0.621 2.114,-1.1 3.259,-1.426 l 0.668,-3.26 5.448,-0.098 0.778,3.235 c 1.156,0.282 2.268,0.721 3.308,1.303 l 2.748,-1.82 3.916,3.825 -1.642,2.817 c 0.614,1.03 1.088,2.139 1.411,3.296 l 3.222,0.677 0.097,5.51 -3.198,0.788 c -0.279,1.168 -0.713,2.293 -1.289,3.345 l 1.8,2.78 -3.782,3.96 -2.809,-1.722 c -1.02,0.62 -2.116,1.104 -3.259,1.44 l -0.705,3.296 -5.448,0.098 -0.778,-3.234 c -1.155,-0.283 -2.268,-0.722 -3.307,-1.304 l -2.749,1.82 -3.915,-3.825 1.702,-2.841 c -0.612,-1.033 -1.091,-2.141 -1.422,-3.297 l -3.211,-0.676 -0.097,-5.511 3.198,-0.787 c 0.279,-1.169 0.713,-2.294 1.289,-3.346 l -1.8,-2.779 3.782,-3.961 2.809,1.722 z m 2.906,7.38 c -0.805,0.842 -1.346,1.906 -1.553,3.058 -0.207,1.152 -0.072,2.34 0.389,3.414 0.461,1.074 1.227,1.986 2.2,2.62 0.974,0.633 2.111,0.96 3.269,0.94 1.157,-0.021 2.283,-0.389 3.233,-1.057 0.951,-0.668 1.685,-1.606 2.108,-2.696 0.423,-1.09 0.517,-2.282 0.27,-3.426 -0.248,-1.144 -0.825,-2.188 -1.659,-3 -0.549,-0.542 -1.197,-0.97 -1.909,-1.258 -0.712,-0.289 -1.473,-0.433 -2.24,-0.424 -0.767,0.01 -1.524,0.172 -2.229,0.477 -0.705,0.305 -1.343,0.748 -1.879,1.303 z"
       fill="#e0e0e0"
       id="path4" />
    <path
       d="m 89.1085,73.5989 c 0.6957,-0.4256 1.4439,-0.7564 2.2252,-0.984 l 0.4621,-2.2263 h 3.7088 l 0.5594,2.1402 c 0.788,0.2025 1.5479,0.5042 2.2617,0.8979 l 1.8723,-1.23 2.676,2.6076 -1.216,1.9434 c 0.42,0.7037 0.747,1.4606 0.972,2.2509 l 2.201,0.4674 v 3.69 l -2.188,0.5412 c -0.191,0.7984 -0.485,1.5678 -0.876,2.2878 l 1.216,1.8942 -2.578,2.706 -1.9212,-1.23 c -0.6957,0.4256 -1.4439,0.7564 -2.2253,0.984 l -0.462,2.2263 h -3.648 l -0.5351,-2.214 c -0.7893,-0.1926 -1.5499,-0.4904 -2.2617,-0.8856 l -1.8727,1.23 -2.6752,-2.6199 1.216,-1.9311 C 85.5991,85.4411 85.272,84.6843 85.047,83.894 l -2.2009,-0.4674 -0.0608,-3.69 2.1766,-0.5412 c 0.2002,-0.7971 0.4984,-1.5657 0.8877,-2.2878 l -1.216,-1.8942 2.5779,-2.706 1.9213,1.23 z m 1.982,5.0061 c -0.5477,0.574 -0.9149,1.2994 -1.0552,2.0844 -0.1402,0.7851 -0.0472,1.5946 0.2673,2.3262 0.3145,0.7316 0.8364,1.3525 1.4996,1.7841 0.6633,0.4317 1.4382,0.6547 2.2268,0.6409 0.7886,-0.0137 1.5554,-0.2636 2.2036,-0.7181 0.6482,-0.4546 1.1486,-1.0933 1.438,-1.8354 0.2893,-0.7421 0.3547,-1.5544 0.1878,-2.3341 -0.1669,-0.7797 -0.5586,-1.4918 -1.1256,-2.0464 -0.3768,-0.3685 -0.8216,-0.6583 -1.3091,-0.8528 -0.4876,-0.1945 -1.0082,-0.2899 -1.5322,-0.2808 -0.524,0.0092 -1.0411,0.1227 -1.5217,0.3341 -0.4806,0.2114 -0.9153,0.5165 -1.2793,0.8979 z"
       fill="#e0e0e0"
       id="path6" />
    <path
       d="m 270.633,65.69 c 1.372,-0.8386 2.848,-1.488 4.39,-1.9311 l 0.9,-4.3911 7.296,-0.1353 1.057,4.3665 c 1.56,0.3856 3.061,0.9813 4.463,1.7712 l 3.648,-2.46 5.387,5.2398 -2.286,3.7884 c 0.832,1.3904 1.474,2.8882 1.909,4.4526 l 4.353,0.9102 0.122,7.38 -4.305,1.0701 c -0.391,1.5853 -0.988,3.1114 -1.775,4.5387 l 2.432,3.7638 -5.095,5.3382 -3.794,-2.3247 c -1.373,0.836 -2.849,1.4853 -4.39,1.9311 l -0.912,4.3906 -7.296,0.136 -1.058,-4.3667 c -1.575,-0.3765 -3.093,-0.9682 -4.511,-1.7589 l -3.648,2.46 -5.29,-5.1537 2.299,-3.8376 c -0.828,-1.3927 -1.47,-2.8898 -1.909,-4.4526 l -4.342,-0.9102 -0.133,-7.38 4.316,-1.0701 c 0.382,-1.5733 0.971,-3.0875 1.751,-4.5018 l -2.432,-3.7638 5.096,-5.3382 z m 3.915,9.84 c -1.081,1.135 -1.806,2.569 -2.082,4.1207 -0.276,1.5517 -0.091,3.1513 0.532,4.5965 0.623,1.4452 1.656,2.6711 2.967,3.5226 1.312,0.8515 2.844,1.2904 4.402,1.2612 1.559,-0.0293 3.074,-0.5254 4.353,-1.4255 1.28,-0.9002 2.267,-2.164 2.836,-3.6316 0.57,-1.4676 0.696,-3.073 0.363,-4.6133 -0.332,-1.5402 -1.109,-2.9461 -2.232,-4.0397 -0.751,-0.721 -1.634,-1.2851 -2.601,-1.66 -0.966,-0.3748 -1.997,-0.5531 -3.031,-0.5245 -1.035,0.0285 -2.054,0.2634 -2.999,0.691 -0.945,0.4276 -1.797,1.0396 -2.508,1.801 z"
       fill="#ebebeb"
       id="path8" />
    <path
       d="m 464.767,249.083 c 1.759,-1.072 3.653,-1.899 5.63,-2.46 l 1.216,-5.646 9.424,-0.172 1.362,5.609 c 2.002,0.493 3.929,1.259 5.728,2.275 l 4.754,-3.161 6.786,6.63 -2.943,4.92 c 1.053,1.787 1.87,3.706 2.432,5.707 l 5.581,1.23 0.171,9.533 -5.545,1.377 c -0.488,2.021 -1.245,3.966 -2.25,5.781 l 3.125,4.822 -6.542,6.789 -4.864,-2.988 c -1.764,1.07 -3.662,1.897 -5.642,2.46 l -1.216,5.645 -9.424,0.16 -1.362,-5.584 c -1.997,-0.499 -3.918,-1.264 -5.715,-2.276 l -4.767,3.162 -6.785,-6.63 2.955,-4.92 c -1.06,-1.779 -1.878,-3.695 -2.432,-5.695 l -5.582,-1.23 -0.158,-9.471 5.533,-1.378 c 0.493,-2.023 1.249,-3.971 2.249,-5.793 l -3.125,-4.809 6.555,-6.864 4.864,2.989 z m 5.022,12.706 c -1.388,1.457 -2.318,3.297 -2.673,5.289 -0.354,1.991 -0.117,4.045 0.682,5.9 0.799,1.855 2.123,3.429 3.806,4.523 1.683,1.094 3.649,1.658 5.65,1.622 2,-0.036 3.945,-0.671 5.588,-1.825 1.644,-1.154 2.912,-2.774 3.645,-4.657 0.733,-1.883 0.897,-3.944 0.473,-5.921 -0.425,-1.978 -1.419,-3.784 -2.858,-5.189 -0.956,-0.936 -2.084,-1.672 -3.321,-2.165 -1.238,-0.494 -2.559,-0.736 -3.888,-0.712 -1.33,0.024 -2.642,0.314 -3.861,0.851 -1.219,0.538 -2.321,1.314 -3.243,2.284 z"
       fill="#e0e0e0"
       id="path10" />
    <path
       d="m 531.392,63.5006 c 0.007,-3.9729 -0.892,-7.894 -2.627,-11.4582 -1.735,-3.5642 -4.26,-6.6755 -7.377,-9.092 -3.118,-2.4164 -6.745,-4.0728 -10.598,-4.8404 -3.854,-0.7676 -7.831,-0.6256 -11.621,0.4148 -3.791,1.0405 -7.293,2.9514 -10.235,5.5841 -2.941,2.6327 -5.243,5.9163 -6.725,9.5954 -1.483,3.679 -2.106,7.6544 -1.822,11.617 0.284,3.9625 1.468,7.8053 3.459,11.2296 l 0.073,0.0984 c 0.973,1.6728 2.201,2.8659 3.442,4.6125 l 14.847,19.8772 c 0.431,0.564 0.983,1.021 1.616,1.335 0.632,0.314 1.327,0.478 2.032,0.478 0.705,0 1.4,-0.164 2.032,-0.478 0.633,-0.314 1.185,-0.771 1.616,-1.335 l 14.592,-19.5451 c 1.326,-1.569 2.564,-3.2115 3.709,-4.92 l 0.061,-0.0738 c 2.315,-3.9675 3.533,-8.4921 3.526,-13.0995 z m -25.536,11.2422 c -2.222,-0.0024 -4.393,-0.6711 -6.239,-1.9214 -1.846,-1.2503 -3.284,-3.0261 -4.133,-5.1031 -0.848,-2.0769 -1.069,-4.3617 -0.634,-6.5655 0.435,-2.2038 1.506,-4.2277 3.078,-5.816 1.571,-1.5882 3.573,-2.6694 5.753,-3.1069 2.179,-0.4376 4.437,-0.2118 6.49,0.6488 2.052,0.8606 3.806,2.3173 5.04,4.186 1.234,1.8687 1.893,4.0656 1.893,6.3129 0,1.4935 -0.291,2.9724 -0.856,4.3521 -0.566,1.3797 -1.395,2.6331 -2.439,3.6886 -1.045,1.0556 -2.285,1.8925 -3.649,2.4629 -1.365,0.5704 -2.827,0.8632 -4.304,0.8616 z"
       fill="#e0e0e0"
       id="path12" />
    <path
       d="m 81.8003,435.243 c 2.5878,-1.819 4.5905,-4.368 5.7599,-7.328 1.1694,-2.961 1.4541,-6.203 0.8187,-9.326 -1.6659,-8.843 -9.728,-14.76 -17.8631,-13.173 -8.135,1.587 -13.4976,10.024 -11.8317,18.88 0.5441,3.168 2.0049,6.101 4.1976,8.429 2.1928,2.327 5.0188,3.944 8.1205,4.646 C 48.8467,445.342 54.72,470.237 54.72,470.237 l 54.027,-10.381 c 0,0 -3.648,-25.609 -26.9467,-24.613 z"
       fill="#ebebeb"
       id="path14" />
    <path
       d="m 147.258,541.368 -11.066,-2.78 c 0,0 -2.298,9.447 -12.051,7.196 -1.885,-0.399 -3.601,-1.382 -4.909,-2.812 -1.307,-1.431 -2.142,-3.239 -2.387,-5.171 -0.23,-1.619 -0.077,-3.27 0.445,-4.818 0.522,-1.547 1.399,-2.948 2.559,-4.087 2.651,-2.682 7.491,-4.514 14.592,-1.304 l 6.189,-25.375 -11.004,-2.743 -3.648,14.871 c 0,0 -16.404,0.184 -20.587,17.38 -4.013,16.457 9.643,23.911 15.893,25.461 4.791,1.193 21.341,4.083 25.974,-15.818 z"
       fill="#ebebeb"
       id="path16" />
    <path
       d="m 130.759,494.22 11.157,2.781 2.569,-10.546 -11.158,-2.781 z"
       fill="#ebebeb"
       id="path18" />
    <path
       d="m 70.528,270.116 h 25.4022 l -2.2374,11.525 H 47.9347 l 1.8119,-9.163 27.5424,-21.833 c 6.8096,-5.51 8.8889,-8.733 8.8889,-12.755 0,-4.022 -3.0278,-6.728 -8.8889,-6.728 -2.4739,0.037 -4.9087,0.63 -7.1291,1.733 -2.2205,1.104 -4.1712,2.692 -5.7119,4.651 l -9.4118,-6.901 c 4.864,-6.728 13.8988,-11.18 24.32,-11.18 12.7801,0 21.1458,6.9 21.1458,16.42 0,7.245 -3.2706,13.358 -13.8985,21.66 z"
       fill="#263238"
       id="path20" />
    <path
       d="m 156.451,268.812 h -9.923 l -2.505,12.829 H 130.38 l 2.59,-12.829 h -32.553 l 1.812,-9.52 35.58,-38.782 h 15.273 l -33.148,36.765 h 15.881 l 2.25,-11.439 H 151.1 l -2.249,11.439 h 9.934 z"
       fill="#263238"
       id="path22" />
    <path
       d="m 196.335,208.112 h 12.61 l -44.372,82.262 H 152 Z"
       fill="#263238"
       id="path24" />
    <path
       d="m 253.925,220.51 -1.812,9.176 -32.285,51.955 h -15.54 l 30.984,-49.606 h -19.59 l -1.994,9.963 H 201.26 l 4.244,-21.488 z"
       fill="#263238"
       id="path26" />
    <path
       d="m 42.2803,329.869 3.5386,-6.789 c 3.1538,2.038 6.8125,3.134 10.5549,3.161 3.4534,0 5.4476,-1.095 5.4476,-2.841 0,-4.318 -15.4188,-1.931 -15.4188,-12.017 0,-6.925 5.8489,-11.464 15.2364,-11.464 3.9815,-0.134 7.9253,0.818 11.4183,2.755 l -3.2589,6.74 c -2.6169,-1.629 -5.6338,-2.481 -8.7066,-2.46 -3.7209,0 -5.7152,1.378 -5.7152,3.125 0,4.403 15.4189,1.882 15.4189,11.783 0,6.876 -5.9827,11.414 -15.2729,11.414 -5.4477,0.025 -10.3847,-1.439 -13.2423,-3.407 z"
       fill="#263238"
       id="path28" />
    <path
       d="m 86.7859,307.582 -1.0336,5.412 h 14.0935 l -1.3498,6.777 H 84.3904 l -1.1431,5.88 h 16.6471 l -1.4592,7.01 H 72.96 l 6.3962,-32.041 h 24.8428 l -1.411,7.023 z"
       fill="#263238"
       id="path30" />
    <path
       d="m 127.352,323.031 5.399,9.63 h -9.388 l -4.718,-8.523 h -4.523 l -1.678,8.523 h -8.975 l 6.336,-32.041 h 13.558 c 8.111,0 12.78,3.813 12.78,10.234 0.064,2.725 -0.763,5.396 -2.353,7.597 -1.589,2.202 -3.852,3.812 -6.438,4.58 z m -5.253,-15.314 h -4.719 l -1.86,9.397 h 5.35 c 3.952,0 6.263,-1.919 6.263,-5.449 -0.049,-2.706 -1.958,-3.948 -5.034,-3.948 z"
       fill="#263238"
       id="path32" />
    <path
       d="m 175.481,300.62 -19.833,32.041 h -8.84 l -7.272,-32.041 h 9.205 l 4.536,20.91 12.962,-20.91 z"
       fill="#263238"
       id="path34" />
    <path
       d="m 177.378,300.62 h 8.986 l -6.396,32.041 h -8.974 z"
       fill="#263238"
       id="path36" />
    <path
       d="m 187.763,319.181 c 0,-11.144 8.11,-19.262 19.893,-19.262 5.849,0 10.616,2.165 12.878,6.052 l -6.518,5.227 c -0.728,-1.193 -1.761,-2.165 -2.989,-2.815 -1.228,-0.649 -2.607,-0.951 -3.991,-0.875 -6.165,0 -10.251,4.809 -10.251,11.131 0,4.318 2.907,7.208 7.758,7.208 1.482,0.007 2.946,-0.32 4.286,-0.959 1.34,-0.638 2.522,-1.571 3.46,-2.731 l 5.302,5.265 c -3.575,4.366 -8.244,5.965 -13.911,5.965 -9.704,-0.086 -15.917,-5.818 -15.917,-14.206 z"
       fill="#263238"
       id="path38" />
    <path
       d="m 233.63,307.582 -1.046,5.412 h 14.094 l -1.314,6.777 h -14.142 l -1.13,5.88 h 16.634 l -1.447,7.01 h -25.426 l 6.323,-32.041 h 24.843 l -1.399,7.023 z"
       fill="#263238"
       id="path40" />
    <path
       d="M 76.7904,202.417 H 59.0733 c 0,-24.945 9.9833,-50.43 27.3843,-69.987 18.3134,-20.553 42.0854,-31.869 66.8804,-31.869 50.67,0 86.068,37.416 86.068,91.02 h -17.681 c 0,-43.702 -27.469,-73.062 -68.351,-73.062 -40.079,-0.037 -76.5836,39.962 -76.5836,83.898 z"
       fill="#5ed8ff"
       id="path42" />
    <path
       d="m 86.5062,197.435 c 2.8333,0 5.1316,0.283 5.1194,0.542 -0.0122,0.258 -2.2982,0.455 -5.1194,0.455 -2.8211,0 -5.1315,-0.234 -5.1315,-0.542 0,-0.307 2.3104,-0.504 5.1315,-0.455 z"
       fill="#263238"
       id="path44" />
    <path
       d="m 98.7392,158.149 c 2.4318,1.575 4.0738,3.186 3.8058,3.616 -0.267,0.431 -2.432,-0.443 -4.8637,-1.931 -2.432,-1.488 -4.0493,-3.124 -3.7939,-3.616 0.2553,-0.492 2.4806,0.369 4.8518,1.931 z"
       fill="#263238"
       id="path46" />
    <path
       d="m 129.382,131.077 c 1.156,2.62 1.727,4.92 1.216,5.117 -0.51,0.196 -1.811,-1.71 -3.052,-4.281 -1.24,-2.57 -1.812,-4.92 -1.216,-5.117 0.596,-0.196 1.909,1.624 3.052,4.281 z"
       fill="#263238"
       id="path48" />
    <path
       d="m 169.754,127.854 c -0.706,2.78 -1.666,4.92 -2.141,4.822 -0.474,-0.099 -0.377,-2.46 0.231,-5.277 0.608,-2.817 1.557,-4.92 2.141,-4.809 0.583,0.11 0.474,2.497 -0.231,5.264 z"
       fill="#263238"
       id="path50" />
    <path
       d="m 202.732,151.298 c -2.36,1.574 -4.488,2.534 -4.767,2.14 -0.28,-0.393 1.362,-2.091 3.648,-3.776 2.286,-1.685 4.426,-2.632 4.767,-2.14 0.34,0.492 -1.289,2.189 -3.648,3.776 z"
       fill="#263238"
       id="path52" />
    <path
       d="m 213.59,189.92 c -2.821,0 -5.119,-0.221 -5.119,-0.467 0,-0.246 2.286,-0.492 5.119,-0.529 2.834,-0.037 5.12,0.172 5.132,0.467 0.012,0.295 -2.274,0.529 -5.132,0.529 z"
       fill="#263238"
       id="path54" />
    <path
       d="m 148.534,195.258 c -0.882,0.006 -1.74,-0.293 -2.432,-0.848 l -29.779,-23.371 c -0.826,-0.652 -1.362,-1.609 -1.489,-2.661 -0.128,-1.052 0.163,-2.112 0.808,-2.947 0.645,-0.835 1.591,-1.377 2.631,-1.506 1.04,-0.129 2.088,0.164 2.914,0.817 l 27.165,21.304 37.514,-34.846 c 0.766,-0.72 1.783,-1.102 2.827,-1.063 1.044,0.04 2.031,0.497 2.742,1.272 0.711,0.774 1.089,1.803 1.05,2.86 -0.039,1.056 -0.491,2.054 -1.257,2.773 l -39.97,37.146 c -0.74,0.695 -1.714,1.077 -2.724,1.07 z"
       fill="#5ed8ff"
       id="path56" />
    <path
       d="m 168.732,74.2139 h -34.145 c -0.531,0 -0.961,0.435 -0.961,0.9717 v 12.5091 c 0,0.5367 0.43,0.9717 0.961,0.9717 h 34.145 c 0.531,0 0.961,-0.435 0.961,-0.9717 V 75.1856 c 0,-0.5367 -0.43,-0.9717 -0.961,-0.9717 z"
       fill="#5ed8ff"
       id="path58" />
    <path
       d="m 160.974,81.4463 h -18.641 v 17.097 h 18.641 z"
       fill="#5ed8ff"
       id="path60" />
    <path
       d="m 74.7115,118.444 -14.0029,17.542 c -0.5443,0.682 -0.4391,1.681 0.235,2.231 l 9.5743,7.82 c 0.674,0.551 1.6616,0.444 2.2059,-0.238 l 14.0029,-17.541 c 0.5442,-0.682 0.439,-1.681 -0.235,-2.231 l -9.5743,-7.82 c -0.674,-0.551 -1.6616,-0.444 -2.2059,0.237 z"
       fill="#5ed8ff"
       id="path62" />
    <path
       d="m 168.732,88.6664 c 0,0.2091 -7.648,0.369 -17.024,0.369 -9.375,0 -17.024,-0.1599 -17.024,-0.369 0,-0.2091 7.637,-0.369 17.024,-0.369 9.388,0 17.024,0.1722 17.024,0.369 z"
       fill="#263238"
       id="path64" />
    <path
       d="m 74.3949,142.786 c -0.1946,0.222 -2.7725,-1.771 -5.9584,-4.194 -3.1859,-2.423 -5.776,-4.391 -5.6179,-4.637 0.158,-0.246 3.0156,1.353 6.238,3.801 3.2224,2.447 5.5207,4.821 5.3383,5.03 z"
       fill="#263238"
       id="path66" />
    <path
       d="m 77.3619,138.371 c -0.1945,0.221 -2.7724,-1.771 -5.9584,-4.195 -3.1859,-2.423 -5.7881,-4.391 -5.63,-4.637 0.158,-0.246 3.0278,1.353 6.2502,3.813 3.2224,2.46 5.5206,4.81 5.3382,5.019 z"
       fill="#263238"
       id="path68" />
    <path
       d="m 80.9978,134.668 c -0.1824,0.222 -2.7603,-1.771 -5.9463,-4.194 -3.1859,-2.423 -5.7395,-4.391 -5.63,-4.637 0.1094,-0.246 3.0278,1.353 6.238,3.813 3.2103,2.46 5.5328,4.809 5.3383,5.018 z"
       fill="#263238"
       id="path70" />
    <path
       d="m 84.5242,130.253 c -0.1824,0.221 -2.7725,-1.771 -5.9584,-4.195 -3.186,-2.423 -5.776,-4.391 -5.6058,-4.637 0.1702,-0.246 3.0278,1.353 6.2381,3.813 3.2102,2.46 5.5085,4.81 5.3261,5.019 z"
       fill="#263238"
       id="path72" />
    <path
       d="m 237.372,123.989 -15.073,-16.61 c -0.586,-0.645 -1.578,-0.688 -2.216,-0.096 l -9.066,8.418 c -0.638,0.593 -0.681,1.596 -0.095,2.242 l 15.073,16.609 c 0.586,0.646 1.578,0.689 2.216,0.096 l 9.066,-8.417 c 0.638,-0.593 0.681,-1.597 0.095,-2.242 z"
       fill="#5ed8ff"
       id="path74" />
    <path
       d="m 213.615,120.081 c -0.183,-0.222 2.14,-2.46 4.985,-5.339 2.846,-2.878 5.144,-5.129 5.363,-4.92 0.219,0.21 -1.763,2.829 -4.645,5.683 -2.882,2.854 -5.533,4.785 -5.703,4.576 z"
       fill="#263238"
       id="path76" />
    <path
       d="m 217.494,123.697 c -0.195,-0.222 2.14,-2.46 4.973,-5.338 2.833,-2.879 5.156,-5.129 5.375,-4.92 0.219,0.209 -1.775,2.829 -4.645,5.682 -2.87,2.854 -5.533,4.785 -5.703,4.576 z"
       fill="#263238"
       id="path78" />
    <path
       d="m 220.57,127.891 c -0.194,-0.221 2.14,-2.46 4.974,-5.338 2.833,-2.878 5.156,-5.129 5.374,-4.92 0.219,0.209 -1.775,2.817 -4.657,5.67 -2.882,2.854 -5.521,4.797 -5.691,4.588 z"
       fill="#263238"
       id="path80" />
    <path
       d="m 224.364,132.11 c -0.194,-0.221 2.14,-2.46 4.974,-5.338 2.833,-2.878 5.155,-5.129 5.374,-4.92 0.219,0.209 -1.775,2.829 -4.657,5.682 -2.882,2.854 -5.521,4.748 -5.691,4.576 z"
       fill="#263238"
       id="path82" />
    <path
       d="m 138.417,88.6541 c -0.279,0 -0.51,-3.198 -0.51,-7.1217 0,-3.9237 0.231,-7.134 0.51,-7.134 0.28,0 0.523,3.198 0.523,7.134 0,3.936 -0.231,7.1217 -0.523,7.1217 z"
       fill="#263238"
       id="path84" />
    <path
       d="m 145.105,88.6541 c -0.279,0 -0.51,-3.198 -0.51,-7.1217 0,-3.9237 0.231,-7.134 0.51,-7.134 0.28,0 0.511,3.198 0.511,7.134 0,3.936 -0.231,7.1217 -0.511,7.1217 z"
       fill="#263238"
       id="path86" />
    <path
       d="m 151.781,88.6541 c -0.28,0 -0.511,-3.198 -0.511,-7.1217 0,-3.9237 0.231,-7.134 0.511,-7.134 0.28,0 0.511,3.198 0.511,7.134 0,3.936 -0.219,7.1217 -0.511,7.1217 z"
       fill="#263238"
       id="path88" />
    <path
       d="m 158.469,88.6541 c -0.292,0 -0.511,-3.198 -0.511,-7.1217 0,-3.9237 0.219,-7.134 0.511,-7.134 0.292,0 0.511,3.198 0.511,7.134 0,3.936 -0.231,7.1217 -0.511,7.1217 z"
       fill="#263238"
       id="path90" />
    <path
       d="m 165.145,88.6541 c -0.28,0 -0.511,-3.198 -0.511,-7.1217 0,-3.9237 0.231,-7.134 0.511,-7.134 0.28,0 0.511,3.198 0.511,7.134 0,3.936 -0.28,7.1217 -0.511,7.1217 z"
       fill="#263238"
       id="path92" />
    <path
       d="m 155.762,196.288 c 3.486,-3.526 3.486,-9.242 0,-12.768 -3.485,-3.526 -9.137,-3.526 -12.622,0 -3.486,3.526 -3.486,9.242 0,12.768 3.485,3.525 9.137,3.526 12.622,0 z"
       fill="#5ed8ff"
       id="path94" />
    <path
       d="m 158.372,189.92 c -0.085,0 -0.073,-0.799 -0.45,-2.165 -0.541,-1.905 -1.691,-3.575 -3.271,-4.748 -1.266,-0.951 -2.769,-1.527 -4.341,-1.665 -1.571,-0.138 -3.149,0.169 -4.559,0.886 -1.409,0.717 -2.593,1.816 -3.421,3.174 -0.827,1.358 -1.266,2.923 -1.266,4.518 0,1.595 0.439,3.16 1.266,4.518 0.828,1.358 2.012,2.457 3.421,3.174 1.41,0.717 2.988,1.024 4.559,0.886 1.572,-0.138 3.075,-0.714 4.341,-1.665 1.577,-1.176 2.727,-2.845 3.271,-4.748 0.377,-1.366 0.365,-2.165 0.45,-2.165 0.085,0 0,0.197 0,0.578 0.019,0.563 -0.038,1.126 -0.17,1.673 -0.437,2.053 -1.573,3.886 -3.211,5.178 -1.223,0.972 -2.67,1.614 -4.205,1.868 -1.535,0.254 -3.109,0.111 -4.574,-0.416 -1.815,-0.651 -3.385,-1.854 -4.496,-3.444 -1.111,-1.59 -1.707,-3.49 -1.707,-5.437 0,-1.947 0.596,-3.846 1.707,-5.437 1.111,-1.59 2.681,-2.793 4.496,-3.444 1.465,-0.525 3.037,-0.668 4.572,-0.417 1.534,0.252 2.981,0.89 4.207,1.857 1.637,1.297 2.773,3.134 3.211,5.19 0.132,0.547 0.189,1.11 0.17,1.673 0.061,0.357 0.036,0.578 0,0.578 z"
       fill="#263238"
       id="path96" />
    <path
       d="m 463.624,220.842 15.249,-2.46 c 9.994,8.157 22.644,12.237 35.462,11.439 12.817,-0.799 24.876,-6.419 33.805,-15.755 8.929,-9.336 14.083,-21.712 14.448,-34.697 0.365,-12.985 -4.085,-25.638 -12.475,-35.472 -8.39,-9.834 -20.114,-16.138 -32.866,-17.672 -12.752,-1.534 -25.61,1.812 -36.047,9.382 -10.436,7.569 -17.696,18.813 -20.352,31.522 -2.656,12.709 -0.517,25.963 5.999,37.157 z"
       fill="#ffffff"
       id="path98" />
    <path
       d="m 463.624,220.842 c 0,0 0,-0.344 0.171,-1.045 l 0.583,-3.149 c 0.523,-2.829 1.301,-6.974 2.311,-12.386 0.002,-0.018 0.009,-0.035 0.018,-0.05 0.01,-0.015 0.023,-0.027 0.038,-0.036 0.015,-0.01 0.032,-0.016 0.05,-0.018 0.017,-0.002 0.035,0 0.052,0.005 0.011,-0.006 0.023,-0.009 0.036,-0.009 0.013,0 0.026,0.003 0.037,0.009 l -0.219,0.173 c -4.352,-7.43 -6.812,-15.836 -7.162,-24.465 -0.108,-2.685 -0.007,-5.375 0.304,-8.044 0.361,-2.857 0.938,-5.682 1.726,-8.45 2.872,-10.035 8.657,-18.967 16.605,-25.638 7.948,-6.671 17.694,-10.775 27.974,-11.779 8.066,-0.77 16.198,0.396 23.734,3.403 7.537,3.007 14.266,7.771 19.641,13.903 l 2.067,2.46 c 0.644,0.861 1.216,1.759 1.848,2.62 1.201,1.75 2.293,3.574 3.271,5.461 0.535,0.91 0.876,1.919 1.326,2.866 0.449,0.947 0.912,1.894 1.216,2.903 0.72,1.952 1.317,3.949 1.787,5.978 1.871,7.884 1.933,16.097 0.182,24.009 -2.345,10.289 -7.721,19.617 -15.417,26.75 -7.697,7.133 -17.352,11.736 -27.69,13.201 -2.84,0.39 -5.706,0.558 -8.573,0.504 -2.661,-0.128 -5.312,-0.415 -7.94,-0.861 -8.366,-1.576 -16.209,-5.246 -22.812,-10.676 h 0.109 l -11.406,1.734 -2.906,0.43 -0.961,0.136 1.01,-0.185 2.93,-0.492 11.285,-1.894 h 0.109 c 6.596,5.341 14.402,8.938 22.715,10.467 2.607,0.44 5.239,0.715 7.88,0.824 2.846,0.047 5.692,-0.13 8.512,-0.528 10.213,-1.495 19.742,-6.077 27.336,-13.144 7.595,-7.068 12.901,-16.292 15.224,-26.462 1.717,-7.822 1.647,-15.937 -0.207,-23.727 -0.476,-2.001 -1.065,-3.972 -1.763,-5.904 -0.304,-0.996 -0.815,-1.907 -1.216,-2.866 -0.402,-0.959 -0.791,-1.931 -1.314,-2.829 -0.963,-1.864 -2.043,-3.664 -3.234,-5.387 -0.608,-0.861 -1.216,-1.747 -1.824,-2.596 l -2.043,-2.46 c -5.309,-6.058 -11.954,-10.766 -19.397,-13.742 -7.442,-2.977 -15.474,-4.139 -23.443,-3.392 -7.055,0.705 -13.888,2.883 -20.069,6.395 -6.181,3.512 -11.574,8.283 -15.839,14.011 -3.717,5.011 -6.495,10.668 -8.196,16.691 -0.786,2.74 -1.367,5.536 -1.739,8.364 -0.322,2.648 -0.436,5.317 -0.34,7.983 0.297,8.568 2.682,16.93 6.943,24.341 0.023,0.026 0.036,0.059 0.036,0.093 0,0.034 -0.013,0.067 -0.036,0.092 -0.024,0.02 -0.054,0.031 -0.085,0.031 -0.031,0 -0.061,-0.011 -0.085,-0.031 l 0.219,-0.074 c -1.07,5.351 -1.897,9.459 -2.432,12.3 -0.28,1.39 -0.499,2.46 -0.645,3.174 -0.146,0.713 -0.292,1.008 -0.292,1.008 z"
       fill="#263238"
       id="path100" />
    <path
       d="m 526.723,179.44 c -0.003,-1.044 0.301,-2.066 0.874,-2.936 0.572,-0.869 1.387,-1.548 2.34,-1.949 0.954,-0.4 2.004,-0.506 3.017,-0.303 1.013,0.203 1.944,0.706 2.674,1.445 0.73,0.739 1.227,1.68 1.428,2.705 0.201,1.024 0.097,2.086 -0.3,3.051 -0.396,0.965 -1.066,1.789 -1.926,2.368 -0.86,0.578 -1.87,0.886 -2.903,0.884 -1.379,-0.003 -2.701,-0.559 -3.676,-1.546 -0.976,-0.986 -1.525,-2.323 -1.528,-3.719 z"
       fill="#263238"
       id="path102" />
    <path
       d="m 505.856,179.44 c -0.002,-1.044 0.302,-2.065 0.873,-2.935 0.572,-0.869 1.386,-1.547 2.339,-1.948 0.953,-0.402 2.002,-0.508 3.015,-0.306 1.013,0.202 1.943,0.704 2.674,1.442 0.731,0.737 1.229,1.677 1.431,2.701 0.202,1.024 0.1,2.086 -0.295,3.051 -0.394,0.964 -1.063,1.789 -1.921,2.37 -0.858,0.58 -1.867,0.89 -2.899,0.89 -1.382,0 -2.707,-0.554 -3.685,-1.541 -0.978,-0.987 -1.529,-2.326 -1.532,-3.724 z"
       fill="#263238"
       id="path104" />
    <path
       d="m 485.05,182.073 c -0.516,-0.904 -0.755,-1.942 -0.688,-2.984 0.068,-1.041 0.439,-2.039 1.067,-2.867 0.628,-0.828 1.485,-1.449 2.462,-1.785 0.977,-0.335 2.03,-0.37 3.027,-0.1 0.996,0.27 1.892,0.833 2.572,1.618 0.68,0.784 1.115,1.755 1.25,2.79 0.135,1.035 -0.037,2.087 -0.494,3.023 -0.456,0.936 -1.176,1.714 -2.07,2.236 -1.199,0.696 -2.622,0.884 -3.957,0.522 -1.335,-0.362 -2.475,-1.244 -3.169,-2.453 z"
       fill="#263238"
       id="path106" />
    <path
       d="m 120.737,368.27 c -3.198,-1.538 -8.585,-4.748 -11.917,-6.002 -3.294,-1.426 -6.968,-1.677 -10.4213,-0.714 -1.9577,0.664 -3.9155,2.251 -3.9277,4.342 l 13.072,9.754 13.194,-3.518 z"
       fill="#ff9a6c"
       id="path108" />
    <path
       d="m 106.436,368.135 c 0,0 -23.4805,-5.154 -27.396,-7.184 -3.9155,-2.029 -24.32,-12.361 -27.737,-12.361 -3.4169,0 -6.3353,0.935 -6.9555,4.379 l 4.4627,3.505 0.5716,1.796 7.6364,4.022 1.3498,2.534 19.456,10.504 c 0,0 20.4045,10.48 23.809,11.07 3.405,0.591 20.405,2.03 27.676,8.29 l 29.184,-12.127 c 0,0 -8.426,-12.104 -14.92,-15.093 -5.788,-2.656 -15.504,-2.656 -22.301,0.16 z"
       fill="#ffbf9d"
       id="path110" />
    <path
       d="m 125.965,387.95 c 0,0 37.149,81.943 43.132,98.4 0,0 41.526,-6.913 42.949,-30.221 l -53.504,-73.8 z"
       fill="#ffbf9d"
       id="path112" />
    <path
       d="m 91.4675,369.992 c 0,0 -0.1459,0 -0.4012,0 -0.3799,-0.039 -0.7548,-0.117 -1.1188,-0.234 -1.3317,-0.41 -2.6256,-0.937 -3.8668,-1.574 -1.5808,-0.775 -3.417,-1.796 -5.4356,-2.94 -1.0092,-0.566 -2.0672,-1.168 -3.1737,-1.746 -1.1066,-0.578 -2.3104,-1.083 -3.5386,-1.624 -2.274,-1.042 -4.6237,-1.905 -7.0285,-2.583 -2.2009,-0.553 -4.3168,-0.972 -5.9097,-0.43 -0.6179,0.25 -1.1785,0.626 -1.647,1.104 -0.4685,0.478 -0.835,1.048 -1.0769,1.675 -0.1796,0.479 -0.3867,0.948 -0.6201,1.403 0,0 0,-0.148 0.0608,-0.394 0.0813,-0.377 0.191,-0.747 0.3283,-1.107 0.2149,-0.574 0.5053,-1.116 0.8634,-1.611 0.4732,-0.678 1.1328,-1.2 1.8969,-1.501 0.9426,-0.319 1.9442,-0.42 2.9306,-0.295 1.103,0.11 2.1964,0.303 3.271,0.578 2.4561,0.655 4.8554,1.51 7.1744,2.558 1.216,0.542 2.432,1.046 3.5629,1.649 1.1309,0.602 2.1766,1.23 3.1859,1.808 2.0064,1.168 3.8061,2.226 5.3504,3.038 1.1966,0.661 2.4357,1.24 3.7088,1.734 0.9485,0.357 1.4835,0.431 1.4835,0.492 z"
       fill="#ff9a6c"
       id="path114" />
    <path
       d="m 69.0688,358.209 c -1.1448,-0.234 -2.2532,-0.623 -3.2954,-1.157 -2.5079,-1.197 -5.0867,-2.236 -7.7216,-3.111 -1.4417,-0.414 -2.9484,-0.543 -4.4384,-0.382 -0.5945,0.018 -1.1791,0.159 -1.7184,0.412 -0.5393,0.254 -1.022,0.616 -1.4188,1.064 -0.4756,0.667 -0.7881,1.438 -0.912,2.251 -0.0111,0.316 -0.0727,0.627 -0.1824,0.923 -0.0569,-0.313 -0.0569,-0.634 0,-0.948 0.0454,-0.877 0.3226,-1.727 0.8025,-2.46 0.3722,-0.512 0.8545,-0.933 1.4106,-1.23 0.636,-0.305 1.3184,-0.501 2.0185,-0.578 1.5684,-0.199 3.1605,-0.078 4.6816,0.357 2.6723,0.867 5.2609,1.979 7.7338,3.321 1.0399,0.457 2.0547,0.97 3.04,1.538 z"
       fill="#ff9a6c"
       id="path116" />
    <path
       d="m 127.68,365.81 c 0,0 -0.328,0.197 -0.948,0.418 -0.89,0.325 -1.795,0.604 -2.712,0.837 -3.019,0.794 -6.113,1.26 -9.23,1.389 -3.115,0.137 -6.237,-0.053 -9.314,-0.565 -1.216,-0.209 -2.116,-0.418 -2.76,-0.603 -0.345,-0.052 -0.678,-0.165 -0.985,-0.332 0,-0.099 1.459,0.184 3.818,0.48 3.057,0.382 6.14,0.51 9.217,0.381 3.08,-0.161 6.142,-0.572 9.157,-1.23 2.249,-0.443 3.672,-0.861 3.757,-0.775 z"
       fill="#ff9a6c"
       id="path118" />
    <path
       d="M 473.559,317.164 419.52,305.847 406.144,295.7 334.765,309.624 c -1.143,2.115 -12.707,18.45 -12.707,18.45 l -28.114,9.655 c -11.949,3.176 -22.614,10.058 -30.498,19.68 -7.496,9.365 -13.637,19.76 -18.24,30.873 -12.646,30.024 -30.898,64.71 -30.898,64.71 l -11.443,-18.646 -48.226,22.976 c 0,0 28.247,57.601 37.598,65.83 10.397,9.139 34.304,10.196 50.829,-6.851 9.959,-10.283 38.742,-50.922 44.737,-61.095 l 8.901,42.534 8.184,48.548 -13.23,33.419 h 193.1 l -7.989,-31.586 c 0,0 7.868,-82.324 10.044,-97.65 5.12,-36.15 -13.254,-133.307 -13.254,-133.307 z"
       fill="#5ed8ff"
       id="path120" />
    <path
       d="m 473.559,317.164 c 0,0 38.669,10.971 47.181,49.851 5.156,23.555 22.666,90.701 28.831,145.977 3.648,32.865 3.551,63.234 3.648,66.715 H 493.878 L 468.732,328.135 Z"
       fill="#5ed8ff"
       id="path122" />
    <path
       d="m 374.382,350.546 c 0,0 0,0.147 -0.158,0.406 l -0.547,1.131 c -0.487,0.996 -1.216,2.46 -2.007,4.318 -1.714,3.69 -3.733,9.163 -6.992,15.276 l -0.158,0.308 -0.267,-0.234 c -4.013,-3.456 -8.366,-7.614 -12.865,-12.103 -7.965,-7.995 -14.945,-15.437 -20.101,-20.714 l -6.141,-6.236 -1.69,-1.685 c -0.206,-0.186 -0.393,-0.392 -0.559,-0.615 0.235,0.15 0.451,0.328 0.644,0.529 l 1.751,1.599 c 1.508,1.402 3.648,3.481 6.287,6.089 5.241,5.203 12.281,12.595 20.222,20.578 4.499,4.489 8.828,8.61 12.792,12.127 l -0.437,0.074 c 3.283,-6.027 5.374,-11.476 7.174,-15.141 0.888,-1.857 1.629,-3.284 2.164,-4.256 0.244,-0.43 0.45,-0.799 0.621,-1.082 0.075,-0.133 0.165,-0.256 0.267,-0.369 z"
       fill="#000000"
       id="path124" />
    <path
       d="m 420.274,307.237 c -0.004,0.291 -0.041,0.58 -0.11,0.861 -0.121,0.615 -0.267,1.427 -0.449,2.46 -0.438,2.116 -1.216,5.166 -2.214,8.881 -2.103,7.38 -5.508,17.577 -9.728,28.585 -2.225,5.83 -4.414,11.341 -6.457,16.224 l -0.158,0.381 -0.304,-0.27 c -5.508,-4.92 -10.445,-8.795 -13.789,-11.673 -1.678,-1.439 -2.991,-2.595 -3.879,-3.407 l -0.985,-0.935 c -0.231,-0.221 -0.341,-0.332 -0.328,-0.344 0.14,0.074 0.27,0.164 0.389,0.27 l 1.045,0.874 3.977,3.271 c 3.417,2.805 8.39,6.605 13.959,11.501 l -0.462,0.11 c 2.007,-4.92 4.183,-10.405 6.397,-16.223 4.17,-11.07 7.636,-21.095 9.837,-28.487 1.094,-3.69 1.897,-6.716 2.432,-8.819 0.231,-0.996 0.426,-1.796 0.572,-2.46 0.065,-0.273 0.15,-0.54 0.255,-0.8 z"
       fill="#000000"
       id="path126" />
    <path
       d="m 295.184,492.291 c -0.051,-0.084 -0.088,-0.175 -0.109,-0.271 l -0.256,-0.836 c -0.219,-0.82 -0.523,-1.902 -0.912,-3.247 -0.413,-1.402 -0.815,-3.137 -1.301,-5.154 -0.486,-2.017 -1.009,-4.33 -1.532,-6.888 -2.69,-13.345 -4.583,-26.842 -5.667,-40.418 -1.374,-15.904 -1.678,-30.356 -1.605,-40.799 0,-5.227 0.134,-9.459 0.28,-12.374 0.073,-1.426 0.122,-2.546 0.158,-3.37 0,-0.344 0,-0.639 0.061,-0.873 -0.013,-0.098 -0.013,-0.197 0,-0.295 0.01,0.102 0.01,0.205 0,0.307 v 0.873 c 0,0.825 0,1.944 0,3.358 0,2.928 -0.097,7.147 -0.073,12.374 0,10.431 0.413,24.871 1.787,40.738 1.094,13.555 2.921,27.04 5.472,40.393 0.499,2.558 0.961,4.92 1.435,6.888 0.474,1.968 0.827,3.776 1.216,5.178 l 0.803,3.272 0.182,0.849 c 0.061,0.197 0.073,0.295 0.061,0.295 z"
       fill="#000000"
       id="path128" />
    <path
       d="m 476.769,360.287 c 0.072,0.107 0.13,0.222 0.17,0.345 0.11,0.258 0.256,0.59 0.426,1.008 0.389,0.935 0.912,2.251 1.593,3.912 0.341,0.861 0.742,1.796 1.131,2.841 l 1.155,3.444 c 0.414,1.23 0.851,2.571 1.326,3.973 0.474,1.402 0.79,2.94 1.216,4.526 3.648,12.657 5.472,30.972 4.426,51.008 -1.046,20.037 -3.381,38.13 -4.864,51.119 -0.742,6.495 -1.35,11.771 -1.776,15.461 -0.206,1.784 -0.377,3.198 -0.498,4.195 l -0.146,1.094 c -0.009,0.126 -0.033,0.25 -0.073,0.369 -0.016,-0.122 -0.016,-0.246 0,-0.369 l 0.085,-1.107 c 0.097,-1.008 0.231,-2.46 0.389,-4.206 0.341,-3.69 0.876,-8.955 1.569,-15.486 1.325,-13.063 3.563,-31.094 4.633,-51.094 1.07,-20 -0.73,-38.216 -4.22,-50.873 l -1.216,-4.526 -1.216,-3.961 c -0.389,-1.23 -0.754,-2.399 -1.094,-3.456 -0.341,-1.058 -0.754,-2.005 -1.082,-2.866 -0.633,-1.685 -1.119,-3.001 -1.484,-3.949 -0.146,-0.43 -0.267,-0.762 -0.365,-1.033 -0.047,-0.118 -0.075,-0.242 -0.085,-0.369 z"
       fill="#000000"
       id="path130" />
    <path
       d="m 214.624,494.874 c -0.17,0 -0.377,-9.373 -0.45,-20.91 -0.073,-11.537 0,-20.91 0.182,-20.91 0.183,0 0.377,9.373 0.45,20.91 0.073,11.537 0,20.91 -0.182,20.91 z"
       fill="#000000"
       id="path132" />
    <path
       d="m 390.093,551.638 v -0.516 c 0,-0.369 0.097,-0.861 0.17,-1.501 0.17,-1.353 0.401,-3.284 0.705,-5.769 0.158,-1.23 0.329,-2.644 0.523,-4.157 0.195,-1.513 0.341,-3.186 0.523,-4.92 0.353,-3.567 0.839,-7.614 1.216,-12.115 0.182,-2.239 0.365,-4.601 0.572,-7.048 0.206,-2.448 0.304,-5.006 0.462,-7.651 0.364,-5.289 0.523,-10.959 0.729,-16.912 0.268,-11.919 0.231,-25.031 -0.377,-38.77 -0.608,-13.739 -1.848,-26.802 -3.222,-38.647 -0.766,-5.916 -1.435,-11.537 -2.298,-16.765 -0.402,-2.619 -0.754,-5.153 -1.216,-7.576 -0.462,-2.423 -0.839,-4.748 -1.216,-6.974 -0.742,-4.441 -1.593,-8.426 -2.286,-11.944 -0.353,-1.759 -0.669,-3.395 -0.973,-4.92 -0.304,-1.525 -0.633,-2.866 -0.912,-4.096 l -1.216,-5.67 c -0.122,-0.627 -0.231,-1.119 -0.304,-1.476 -0.073,-0.357 -0.085,-0.517 -0.085,-0.517 0.061,0.16 0.11,0.325 0.146,0.492 l 0.377,1.464 1.349,5.658 0.961,4.084 c 0.316,1.5 0.657,3.124 1.034,4.92 0.717,3.505 1.605,7.49 2.371,11.931 0.405,2.222 0.81,4.547 1.216,6.974 0.438,2.46 0.79,4.92 1.216,7.577 0.875,5.239 1.568,10.861 2.359,16.777 1.398,11.857 2.59,24.932 3.271,38.683 0.681,13.752 0.632,26.888 0.328,38.819 -0.231,5.966 -0.401,11.636 -0.79,16.925 -0.17,2.644 -0.292,5.203 -0.499,7.663 -0.207,2.46 -0.425,4.809 -0.62,7.06 -0.34,4.502 -0.863,8.61 -1.216,12.103 -0.207,1.784 -0.401,3.444 -0.571,4.92 -0.171,1.476 -0.402,2.903 -0.584,4.158 -0.353,2.46 -0.632,4.403 -0.815,5.744 l -0.231,1.5 c -0.018,0.167 -0.051,0.331 -0.097,0.492 z"
       fill="#000000"
       id="path134" />
    <path
       d="m 415.799,418.872 h 0.243 l 0.766,-0.086 2.979,-0.344 11.394,-1.23 40.554,-4.256 h 0.304 v 0.307 c 0.304,12.411 0.669,26.458 1.046,41.353 v 0.135 l -0.085,0.086 -4.864,5.326 -17.73,19.164 -0.158,0.172 -0.206,-0.111 -29.878,-15.006 -0.133,-0.061 v -0.111 c -1.301,-13.715 -2.432,-25.055 -3.125,-33.013 -0.365,-3.912 -0.645,-6.987 -0.839,-9.115 -0.086,-1.02 -0.159,-1.808 -0.207,-2.386 -0.049,-0.578 0,-0.787 0,-0.787 0,0 0,0.295 0.109,0.836 0.11,0.542 0.158,1.39 0.28,2.46 0.219,2.153 0.547,5.24 0.973,9.176 0.814,7.897 1.97,19.176 3.38,32.817 l -0.146,-0.209 29.914,14.919 -0.353,0.062 17.693,-19.237 4.864,-5.314 -0.085,0.222 c -0.353,-14.896 -0.693,-28.93 -0.985,-41.353 l 0.316,0.271 -40.432,3.911 -11.467,1.082 -3.052,0.271 -0.79,0.074 z"
       fill="#000000"
       id="path136" />
    <path
       d="m 472.112,427.531 c -0.689,0.194 -1.393,0.33 -2.104,0.406 -1.362,0.222 -3.332,0.505 -5.776,0.824 -4.864,0.628 -11.661,1.353 -19.14,2.079 l -19.164,1.894 -5.8,0.615 c -0.704,0.115 -1.415,0.168 -2.128,0.16 0.689,-0.193 1.393,-0.329 2.104,-0.406 1.362,-0.221 3.332,-0.504 5.776,-0.824 4.864,-0.627 11.661,-1.353 19.152,-2.079 l 19.152,-1.894 5.8,-0.615 c 0.704,-0.114 1.415,-0.168 2.128,-0.16 z"
       fill="#000000"
       id="path138" />
    <g
       opacity="0.3"
       id="g142">
      <path
         d="m 483.859,475.907 2.042,25.129 c 4.512,-21.525 11.601,-44.661 10.495,-66.629 -1.107,-21.968 -3.15,-42.988 -15.383,-62.878 5.318,14.975 7.758,30.84 7.187,46.74 -1.119,25.707 -4.341,57.638 -4.341,57.638 z"
         fill="#000000"
         id="path140" />
    </g>
    <path
       d="m 206.574,429.13 c -0.657,-1.514 -1.819,-2.746 -3.283,-3.481 -1.703,-0.59 -3.551,0.246 -5.168,1.058 l -44.117,22.214 c -2.906,1.464 -6.08,3.198 -7.15,6.273 -1.398,3.936 1.216,8.093 3.648,11.476 4.062,5.646 8.926,11.796 15.808,12.595 l 37.952,-26.322 c 4.633,-0.689 7.515,-5.916 7.296,-10.652 -0.219,-4.735 -2.627,-9.052 -4.986,-13.161 z"
       fill="#5ed8ff"
       id="path144" />
    <path
       d="m 211.365,445.219 c -0.112,0.158 -0.243,0.303 -0.389,0.43 l -1.216,1.144 c -1.046,0.984 -2.59,2.374 -4.524,4.047 -3.879,3.358 -9.387,7.823 -15.808,12.374 -6.42,4.551 -12.293,8.302 -16.756,10.836 -2.213,1.292 -4.025,2.3 -5.29,2.964 l -1.459,0.751 c -0.34,0.172 -0.523,0.246 -0.535,0.221 0.141,-0.134 0.301,-0.246 0.474,-0.332 l 1.399,-0.861 5.18,-3.137 c 4.365,-2.656 10.312,-6.469 16.659,-11.008 6.348,-4.539 11.893,-8.93 15.808,-12.189 l 4.657,-3.9 1.216,-1.045 c 0.414,-0.197 0.572,-0.32 0.584,-0.295 z"
       fill="#000000"
       id="path146" />
    <g
       opacity="0.3"
       id="g150">
      <path
         d="m 419.702,310.054 c -5.192,17.441 -12.464,37.171 -18.604,54.12 -5.229,-4.489 -12.549,-10.43 -17.79,-14.932 4.51,9.051 9.925,17.612 16.16,25.547 0.73,0.922 1.703,1.931 2.833,1.71 1.131,-0.222 1.642,-1.403 2.031,-2.46 l 9.57,-25.621 c 4.475,-11.98 8.792,-25.953 5.8,-38.364 z"
         fill="#000000"
         id="path148" />
    </g>
    <path
       d="m 337.622,120.302 c 15.808,-4.6 30.595,0 45.175,7.651 14.58,7.65 26.338,20.282 33.951,34.981 8.025,15.485 11.576,33.53 8.67,50.762 -2.907,17.232 -12.537,33.468 -26.959,43.05 -19.711,13.136 -46.877,12.447 -67.172,0.283 -20.295,-12.165 -33.659,-34.588 -37.197,-58.192 -2.432,-16.26 -0.462,-33.406 7.04,-47.97 7.503,-14.563 20.77,-26.371 36.48,-30.577"
       fill="#263238"
       id="path152" />
    <path
       d="m 389.521,170.351 c -3.052,-5.941 -2.918,-12.989 -4.584,-19.484 -3.648,-14.28 -16.538,-24.6 -30.546,-28.72 -13.023,-3.85 -28.09,-0.959 -42.56,5.658 -9.898,4.539 -18.909,11.5 -24.819,20.725 -3.865,6.184 -6.213,13.212 -6.847,20.5 -0.635,7.287 0.462,14.623 3.199,21.394 l 72.219,-19.212 c 7.515,4.92 15.212,10 23.906,12.3 2.53,0.791 5.217,0.914 7.807,0.356 1.285,-0.307 2.456,-0.982 3.372,-1.944 0.916,-0.961 1.54,-2.17 1.796,-3.48 0.304,-2.927 -1.617,-5.498 -2.943,-8.093 z"
       fill="#263238"
       id="path154" />
    <path
       d="M 406.752,299.882 388.111,167.263 c -0.827,-6.273 -3.648,-12.669 -9.886,-12.373 l -65.664,-6.396 c -20.575,0.959 -30.23,28.29 -28.406,48.99 2.031,23.051 5.399,51.107 10.64,67.737 10.543,33.419 37.161,33.763 37.161,33.763 0,0 1.617,6.642 3.648,19.065 l 42.56,28.635 z"
       fill="#ffbf9d"
       id="path156" />
    <path
       d="m 300.024,222.712 c 0.163,1.147 0.763,2.184 1.672,2.889 0.909,0.706 2.054,1.024 3.192,0.887 0.559,-0.04 1.105,-0.193 1.605,-0.45 0.499,-0.257 0.943,-0.613 1.305,-1.046 0.361,-0.434 0.634,-0.936 0.8,-1.478 0.166,-0.541 0.224,-1.111 0.169,-1.676 -0.167,-1.146 -0.767,-2.182 -1.675,-2.889 -0.907,-0.707 -2.051,-1.029 -3.189,-0.899 -0.56,0.043 -1.105,0.199 -1.604,0.458 -0.499,0.258 -0.942,0.615 -1.303,1.049 -0.361,0.434 -0.633,0.937 -0.8,1.479 -0.167,0.541 -0.226,1.111 -0.172,1.676 z"
       fill="#263238"
       id="path158" />
    <path
       d="m 292.363,211.088 c 0.62,0.492 3.538,-2.46 8.22,-3.185 4.682,-0.726 8.451,1.131 8.877,0.467 0.207,-0.295 -0.499,-1.23 -2.153,-2.116 -2.237,-1.098 -4.754,-1.476 -7.21,-1.082 -2.433,0.365 -4.687,1.507 -6.433,3.259 -1.277,1.329 -1.605,2.399 -1.301,2.657 z"
       fill="#263238"
       id="path160" />
    <path
       d="m 343.228,215.602 c 0.161,1.15 0.759,2.19 1.669,2.898 0.909,0.708 2.056,1.028 3.195,0.891 0.559,-0.04 1.105,-0.193 1.605,-0.45 0.5,-0.257 0.944,-0.613 1.305,-1.046 0.362,-0.434 0.634,-0.936 0.8,-1.478 0.167,-0.541 0.224,-1.111 0.169,-1.676 -0.16,-1.149 -0.759,-2.189 -1.668,-2.897 -0.909,-0.708 -2.056,-1.028 -3.196,-0.891 -0.559,0.042 -1.103,0.196 -1.602,0.453 -0.499,0.258 -0.943,0.613 -1.304,1.047 -0.361,0.433 -0.633,0.934 -0.801,1.475 -0.167,0.541 -0.225,1.11 -0.172,1.674 z"
       fill="#263238"
       id="path162" />
    <path
       d="m 336.832,204.828 c 0.62,0.492 3.551,-2.46 8.22,-3.186 4.67,-0.726 8.451,1.132 8.877,0.467 0.207,-0.295 -0.499,-1.23 -2.152,-2.115 -2.242,-1.101 -4.763,-1.479 -7.223,-1.083 -2.464,0.367 -4.745,1.528 -6.506,3.309 -1.216,1.23 -1.544,2.46 -1.216,2.608 z"
       fill="#263238"
       id="path164" />
    <path
       d="m 326.764,242.552 c 0,-0.271 -3.004,-0.332 -7.795,-0.209 -1.216,0 -2.432,0 -2.712,-0.8 -0.279,-0.799 -0.109,-2.202 0.256,-3.69 0.681,-3.091 1.398,-6.334 2.152,-9.729 2.918,-13.85 4.864,-25.154 4.292,-25.264 -0.571,-0.111 -3.368,11.07 -6.298,24.846 -0.694,3.407 -1.362,6.666 -1.983,9.778 -0.243,1.439 -0.79,3.112 0.098,4.822 0.233,0.402 0.555,0.743 0.942,0.997 0.386,0.254 0.825,0.414 1.283,0.466 0.686,0.094 1.381,0.094 2.067,0 4.779,-0.516 7.722,-0.959 7.698,-1.217 z"
       fill="#263238"
       id="path166" />
    <path
       d="m 331.968,298.984 c 15.988,-2.223 31.051,-8.896 43.508,-19.274 0,0 -10.615,26.876 -41.344,29.582 z"
       fill="#ff9a6c"
       id="path168" />
    <path
       d="m 330.46,253.646 c 0.718,-1.269 1.743,-2.332 2.979,-3.089 1.236,-0.758 2.642,-1.185 4.086,-1.24 1.05,-0.062 2.101,0.093 3.089,0.455 0.989,0.361 1.895,0.922 2.663,1.648 0.743,0.693 1.259,1.6 1.476,2.599 0.218,0.998 0.127,2.04 -0.26,2.985 -0.985,1.98 -3.563,2.805 -5.886,2.46 -2.326,-0.448 -4.542,-1.359 -6.517,-2.681 -0.589,-0.305 -1.113,-0.723 -1.545,-1.23 -0.212,-0.234 -0.35,-0.525 -0.398,-0.839 -0.047,-0.313 -0.002,-0.633 0.131,-0.92"
       fill="#ff9a6c"
       id="path170" />
    <path
       d="m 341.015,243.696 c -0.778,0.073 0,5.215 -3.806,9.52 -3.806,4.305 -9.266,4.588 -9.205,5.301 0,0.344 1.362,0.812 3.648,0.529 2.98,-0.418 5.718,-1.886 7.734,-4.145 1.933,-2.165 2.958,-5.006 2.857,-7.921 -0.134,-2.177 -0.888,-3.358 -1.228,-3.284 z"
       fill="#263238"
       id="path172" />
    <path
       d="m 335.494,190.707 c 0.657,1.23 5.229,-0.111 10.811,-0.295 5.581,-0.185 10.251,0.652 10.798,-0.615 0.243,-0.603 -0.706,-1.685 -2.688,-2.657 -2.616,-1.155 -5.458,-1.694 -8.31,-1.575 -2.853,0.12 -5.641,0.894 -8.154,2.264 -1.885,1.132 -2.748,2.3 -2.457,2.878 z"
       fill="#263238"
       id="path174" />
    <path
       d="m 290.624,190.215 c 0.985,0.947 4.037,-0.664 7.904,-1.316 3.867,-0.652 7.296,-0.381 7.831,-1.624 0.255,-0.602 -0.426,-1.586 -2.006,-2.386 -2.109,-0.918 -4.438,-1.184 -6.696,-0.763 -2.257,0.42 -4.341,1.508 -5.987,3.125 -1.228,1.316 -1.508,2.497 -1.046,2.964 z"
       fill="#263238"
       id="path176" />
    <path
       d="m 400.149,158.998 c -8.852,-18.991 -40.882,-42.571 -61.213,-38.352 l -30.145,24.305 c 1.81,5.515 5.059,10.434 9.404,14.235 4.345,3.802 9.625,6.346 15.281,7.364 6.019,1.009 13.072,0.553 17.182,5.129 4.11,4.576 3.125,12.448 7.101,17.306 5.509,6.741 17.863,4.723 22.314,12.226 1.958,3.272 1.727,7.528 3.721,10.775 2.675,4.317 14.945,8.61 19.456,6.421 4.511,-2.19 3.49,-10.357 4.475,-14.871 1.69,-7.687 0.085,-11.341 -1.326,-15.326 -3.295,-9.446 -2.018,-20.159 -6.25,-29.212 z"
       fill="#263238"
       id="path178" />
    <path
       d="m 389.789,224.36 c -0.377,-2.558 1.629,-9.016 4.061,-9.84 6.494,-2.066 18.569,-3.383 21.256,13.69 3.648,23.37 -20.234,22.251 -20.392,21.586 -0.158,-0.664 -3.612,-16.654 -4.925,-25.436 z"
       fill="#ffbf9d"
       id="path180" />
    <path
       d="m 400.368,239.833 c 0.097,-0.098 0.45,0.222 1.216,0.419 1.021,0.266 2.104,0.116 3.016,-0.419 2.286,-1.291 3.721,-5.535 3.173,-9.766 -0.257,-2.008 -0.955,-3.933 -2.042,-5.633 -0.33,-0.695 -0.823,-1.298 -1.435,-1.757 -0.612,-0.459 -1.326,-0.759 -2.08,-0.875 -0.481,-0.051 -0.964,0.072 -1.364,0.347 -0.401,0.274 -0.692,0.683 -0.824,1.153 -0.207,0.701 0,1.144 -0.11,1.23 -0.109,0.086 -0.547,-0.307 -0.523,-1.304 0.04,-0.596 0.281,-1.16 0.681,-1.599 0.556,-0.591 1.321,-0.936 2.128,-0.959 1.8,-0.16 3.648,1.23 4.767,2.94 1.302,1.864 2.137,4.021 2.432,6.285 0.596,4.723 -1.094,9.508 -4.28,11.07 -0.589,0.283 -1.233,0.43 -1.885,0.43 -0.652,0 -1.296,-0.147 -1.885,-0.43 -0.851,-0.615 -1.058,-1.082 -0.985,-1.132 z"
       fill="#ff9a6c"
       id="path182" />
    <path
       d="m 314.725,137.091 c -1.058,9.84 -14.033,23.678 -19.456,31.833 -10.421,15.559 -12.269,20.541 -8.597,52.226 -6.907,-10.295 -12.452,-20.529 -13.376,-32.94 -0.924,-12.41 2.164,-25.289 9.655,-35.153 7.491,-9.865 19.541,-16.359 31.835,-15.99"
       fill="#263238"
       id="path184" />
    <path
       d="m 369.822,103.722 c 4.864,-5.4247 11.893,-8.9548 19.189,-10.7998 10.396,-2.6322 21.815,-1.9188 31.275,2.6568 9.461,4.576 16.781,13.161 18.69,23.001 0.939,5.055 0.497,10.273 -1.277,15.093 -1.774,4.819 -4.813,9.059 -8.791,12.262 5.409,5.305 12.004,9.212 19.224,11.39 -1.969,2.989 -5.605,4.735 -9.278,5.363 -3.692,0.467 -7.428,0.442 -11.114,-0.074 2.516,3.803 6.281,6.582 10.628,7.847 -5.984,1.398 -12.226,1.19 -18.106,-0.602 -5.752,-1.764 -11.256,-4.264 -16.38,-7.442 -17.79,-10.443 -27.603,-19.594 -39.617,-35.67 -1.569,-6.937 0.657,-17.589 5.557,-23.025 z"
       fill="#263238"
       id="path186" />
    <path
       d="M 408.175,153.02 C 395.115,133.721 378.492,123.402 363.45,120.191 Z"
       fill="#263238"
       id="path188" />
    <path
       d="m 363.45,120.191 c 0.69,0.279 1.402,0.498 2.128,0.652 1.374,0.394 3.356,0.996 5.74,1.919 6.205,2.438 12.039,5.751 17.328,9.84 5.29,4.079 10.111,8.745 14.373,13.911 1.605,2.005 2.906,3.69 3.745,4.797 0.418,0.628 0.89,1.216 1.411,1.759 -0.352,-0.673 -0.759,-1.314 -1.216,-1.919 -0.779,-1.23 -2.019,-2.89 -3.587,-4.92 -4.155,-5.321 -8.942,-10.104 -14.252,-14.243 -5.353,-4.13 -11.299,-7.407 -17.632,-9.717 -1.91,-0.687 -3.859,-1.258 -5.837,-1.71 -0.723,-0.182 -1.459,-0.305 -2.201,-0.369 z"
       fill="#455a64"
       id="path190" />
    <path
       d="m 423.74,169.465 -0.292,0.098 -0.851,0.345 c -0.73,0.32 -1.824,0.738 -3.259,1.23 -4.056,1.373 -8.262,2.241 -12.525,2.583 -6.321,0.476 -12.676,0.062 -18.885,-1.23 -7.604,-1.616 -15.038,-3.959 -22.204,-6.999 -7.661,-3.161 -14.884,-6.408 -21.316,-9.594 -5.714,-2.796 -11.213,-6.019 -16.453,-9.643 -3.522,-2.454 -6.848,-5.185 -9.947,-8.167 -1.118,-1.046 -1.921,-1.919 -2.432,-2.46 l -0.644,-0.652 c -0.146,-0.135 -0.219,-0.209 -0.231,-0.197 -0.012,0.012 0,0.086 0.182,0.246 l 0.596,0.701 c 0.523,0.615 1.301,1.513 2.432,2.595 3.047,3.07 6.346,5.872 9.862,8.377 5.221,3.71 10.722,7 16.452,9.84 6.445,3.235 13.656,6.506 21.329,9.68 7.21,3.048 14.695,5.383 22.35,6.974 6.27,1.266 12.686,1.622 19.055,1.058 4.257,-0.394 8.449,-1.328 12.476,-2.78 1.423,-0.554 2.505,-1.009 3.222,-1.378 l 0.815,-0.406 c 0.182,-0.159 0.28,-0.209 0.268,-0.221 z"
       fill="#455a64"
       id="path192" />
    <path
       d="m 354.841,285.294 -2.201,-4.354 c 0.158,-0.086 15.431,-8.007 21.304,-13.001 13.838,-11.759 26.558,-30.541 26.692,-30.75 l 4.012,2.767 c -0.535,0.8 -13.218,19.533 -27.579,31.734 -6.323,5.339 -21.584,13.272 -22.228,13.604 z"
       fill="#455a64"
       id="path194" />
    <path
       d="m 366.211,271.703 c 0,0 -20.867,9.421 -20.867,11.512 0,2.091 3.308,6.273 5.788,6.064 2.481,-0.209 9.655,-4.292 10.944,-5.965 1.289,-1.673 3.575,-5.978 6.08,-8.069 z"
       fill="#263238"
       id="path196" />
    <path
       d="m 404.478,208.37 -4.864,-0.234 c 0.176,-14.187 -2.239,-28.286 -7.126,-41.586 -10.555,-27.503 -30.85,-42.263 -60.301,-43.886 -2.679,-0.119 -5.363,0.066 -8.001,0.553 l 2.128,-2.042 c 1.031,-0.984 2.23,-1.772 3.538,-2.324 1.794,-0.759 3.743,-1.063 5.679,-0.886 37.185,3.259 53.99,27.171 61.542,46.949 5.144,13.887 7.656,28.629 7.405,43.456 z"
       fill="#455a64"
       id="path198" />
    <path
       d="m 402.046,253.105 c 8.509,0 15.407,-10.033 15.407,-22.411 0,-12.377 -6.898,-22.41 -15.407,-22.41 -8.509,0 -15.407,10.033 -15.407,22.41 0,12.378 6.898,22.411 15.407,22.411 z"
       fill="#455a64"
       id="path200" />
    <path
       d="m 417.453,230.694 c -0.015,-0.101 -0.015,-0.205 0,-0.307 0,-0.246 0,-0.541 -0.073,-0.91 -0.055,-1.162 -0.172,-2.32 -0.353,-3.469 -0.628,-4.237 -2.259,-8.259 -4.754,-11.722 -0.841,-1.119 -1.812,-2.131 -2.894,-3.013 -1.179,-0.939 -2.507,-1.667 -3.928,-2.153 -1.521,-0.498 -3.132,-0.654 -4.718,-0.455 -1.679,0.255 -3.286,0.863 -4.718,1.784 -3.035,2.136 -5.379,5.131 -6.737,8.61 -1.519,3.704 -2.3,7.675 -2.3,11.685 0,4.01 0.781,7.98 2.3,11.685 1.357,3.479 3.701,6.475 6.737,8.61 1.432,0.921 3.039,1.528 4.718,1.783 1.587,0.193 3.196,0.038 4.718,-0.455 1.421,-0.486 2.749,-1.214 3.928,-2.152 1.079,-0.886 2.05,-1.897 2.894,-3.014 2.495,-3.463 4.126,-7.484 4.754,-11.722 0.18,-1.149 0.298,-2.307 0.353,-3.468 0,-0.369 0,-0.665 0.073,-0.911 -0.016,-0.101 -0.016,-0.205 0,-0.307 0.019,0.101 0.019,0.206 0,0.307 v 0.911 c -0.013,1.172 -0.094,2.342 -0.243,3.505 -0.544,4.313 -2.141,8.422 -4.645,11.956 -0.852,1.158 -1.84,2.208 -2.943,3.124 -1.216,0.993 -2.595,1.763 -4.074,2.275 -1.594,0.53 -3.283,0.702 -4.949,0.505 -1.76,-0.256 -3.446,-0.884 -4.949,-1.845 -3.146,-2.165 -5.581,-5.232 -6.992,-8.807 -1.565,-3.779 -2.371,-7.834 -2.371,-11.931 0,-4.097 0.806,-8.153 2.371,-11.931 1.411,-3.575 3.846,-6.642 6.992,-8.807 1.503,-0.961 3.189,-1.59 4.949,-1.845 1.666,-0.197 3.355,-0.025 4.949,0.504 1.479,0.512 2.858,1.282 4.074,2.276 1.106,0.913 2.094,1.963 2.943,3.124 2.508,3.532 4.105,7.641 4.645,11.956 0.148,1.158 0.229,2.325 0.243,3.493 v 0.922 c 0.008,0.07 0.008,0.14 0,0.209 z"
       fill="#263238"
       id="path202" />
    <path
       d="m 404.417,243.708 c 5.42,0 9.813,-6.388 9.813,-14.268 0,-7.88 -4.393,-14.268 -9.813,-14.268 -5.419,0 -9.813,6.388 -9.813,14.268 0,7.88 4.394,14.268 9.813,14.268 z"
       fill="#455a64"
       id="path204" />
    <path
       d="m 414.23,229.44 c -0.073,0 0,-1.083 -0.352,-2.989 -0.407,-2.673 -1.45,-5.206 -3.04,-7.38 -1.081,-1.491 -2.581,-2.619 -4.305,-3.235 -0.957,-0.311 -1.969,-0.408 -2.967,-0.283 -1.052,0.159 -2.059,0.54 -2.955,1.119 -1.908,1.345 -3.384,3.227 -4.244,5.412 -0.961,2.339 -1.453,4.848 -1.447,7.38 -0.012,2.534 0.48,5.044 1.447,7.38 0.86,2.186 2.336,4.068 4.244,5.412 0.896,0.58 1.903,0.961 2.955,1.12 0.998,0.125 2.01,0.028 2.967,-0.283 1.724,-0.616 3.224,-1.744 4.305,-3.235 1.59,-2.174 2.633,-4.707 3.04,-7.38 0.304,-1.907 0.279,-2.989 0.352,-2.977 0.017,0.258 0.017,0.517 0,0.775 -0.001,0.749 -0.05,1.497 -0.145,2.239 -0.323,2.759 -1.331,5.391 -2.931,7.65 -1.114,1.594 -2.684,2.805 -4.499,3.469 -1.024,0.352 -2.112,0.47 -3.186,0.344 -1.14,-0.178 -2.229,-0.597 -3.198,-1.23 -2.022,-1.387 -3.588,-3.353 -4.499,-5.645 -1.003,-2.421 -1.52,-5.02 -1.52,-7.645 0,-2.625 0.517,-5.223 1.52,-7.644 0.911,-2.293 2.477,-4.258 4.499,-5.646 0.965,-0.63 2.051,-1.049 3.186,-1.23 1.078,-0.125 2.17,-0.007 3.198,0.345 1.815,0.664 3.385,1.874 4.499,3.468 1.6,2.259 2.608,4.891 2.931,7.651 0.095,0.742 0.144,1.49 0.145,2.238 0.017,0.267 0.017,0.534 0,0.8 z"
       fill="#263238"
       id="path206" />
    <path
       d="m 405.098,239.698 c 3.895,0 7.053,-4.593 7.053,-10.258 0,-5.666 -3.158,-10.258 -7.053,-10.258 -3.895,0 -7.053,4.592 -7.053,10.258 0,5.665 3.158,10.258 7.053,10.258 z"
       fill="#455a64"
       id="path208" />
    <path
       d="m 412.151,229.44 c -0.061,0 -0.061,-0.775 -0.28,-2.14 -0.313,-1.92 -1.071,-3.736 -2.213,-5.302 -0.769,-1.061 -1.837,-1.863 -3.064,-2.3 -0.699,-0.226 -1.439,-0.289 -2.166,-0.185 -0.726,0.105 -1.42,0.374 -2.029,0.788 -2.639,1.759 -4.037,5.449 -4.05,9.127 -0.012,3.677 1.411,7.38 4.05,9.138 0.609,0.415 1.303,0.684 2.029,0.788 0.727,0.105 1.467,0.041 2.166,-0.185 1.227,-0.437 2.295,-1.238 3.064,-2.3 1.142,-1.565 1.9,-3.382 2.213,-5.301 0.219,-1.366 0.219,-2.14 0.28,-2.128 0.029,0.183 0.029,0.37 0,0.553 0.006,0.539 -0.022,1.077 -0.085,1.612 -0.219,1.999 -0.939,3.908 -2.092,5.547 -0.82,1.134 -1.96,1.991 -3.271,2.46 -0.746,0.254 -1.539,0.342 -2.322,0.258 -0.83,-0.116 -1.626,-0.409 -2.335,-0.861 -1.472,-1.008 -2.611,-2.439 -3.271,-4.108 -0.732,-1.751 -1.109,-3.633 -1.109,-5.535 0,-1.901 0.377,-3.783 1.109,-5.535 0.66,-1.669 1.799,-3.1 3.271,-4.108 0.709,-0.452 1.505,-0.745 2.335,-0.861 0.783,-0.084 1.576,0.004 2.322,0.258 1.311,0.469 2.451,1.326 3.271,2.46 1.153,1.639 1.873,3.548 2.092,5.547 0.063,0.535 0.091,1.073 0.085,1.612 0.044,0.231 0.044,0.469 0,0.701 z"
       fill="#263238"
       id="path210" />
  </g>
  <defs
     id="defs231">
    <filter
       id="filter0_d_3_207"
       x="-4"
       y="0.5"
       width="616"
       height="623"
       filterUnits="userSpaceOnUse"
       color-interpolation-filters="sRGB">
      <feFlood
         flood-opacity="0"
         result="BackgroundImageFix"
         id="feFlood214" />
      <feColorMatrix
         in="SourceAlpha"
         type="matrix"
         values="0 0 0 0 0 0 0 0 0 0 0 0 0 0 0 0 0 0 127 0"
         result="hardAlpha"
         id="feColorMatrix216" />
      <feOffset
         dy="4"
         id="feOffset218" />
      <feGaussianBlur
         stdDeviation="2"
         id="feGaussianBlur220" />
      <feComposite
         in2="hardAlpha"
         operator="out"
         id="feComposite222" />
      <feColorMatrix
         type="matrix"
         values="0 0 0 0 0 0 0 0 0 0 0 0 0 0 0 0 0 0 0.25 0"
         id="feColorMatrix224" />
      <feBlend
         mode="normal"
         in2="BackgroundImageFix"
         result="effect1_dropShadow_3_207"
         id="feBlend226" />
      <feBlend
         mode="normal"
         in="SourceGraphic"
         in2="effect1_dropShadow_3_207"
         result="shape"
         id="feBlend228" />
    </filter>
  </defs>
</svg>
